<?xml version="1.0" encoding="UTF-8" standalone="no"?>
<!-- Generator: Adobe Illustrator 16.0.0, SVG Export Plug-In . SVG Version: 6.00 Build 0)  -->

<svg
   xmlns:dc="http://purl.org/dc/elements/1.1/"
   xmlns:cc="http://creativecommons.org/ns#"
   xmlns:rdf="http://www.w3.org/1999/02/22-rdf-syntax-ns#"
   xmlns:svg="http://www.w3.org/2000/svg"
   xmlns="http://www.w3.org/2000/svg"
   xmlns:xlink="http://www.w3.org/1999/xlink"
   xmlns:sodipodi="http://sodipodi.sourceforge.net/DTD/sodipodi-0.dtd"
   xmlns:inkscape="http://www.inkscape.org/namespaces/inkscape"
   version="1.0"
   x="0px"
   y="0px"
   width="1052.3622"
   height="744.09448"
   viewBox="0 0 1052.3622 744.09449"
   enable-background="new 0 0 841.891 595.275"
   xml:space="preserve"
   id="svg2"
   inkscape:version="0.91 r13725"
   sodipodi:docname="templateCertificate.svg"><metadata
     id="metadata301"><rdf:RDF><cc:Work
         rdf:about=""><dc:format>image/svg+xml</dc:format><dc:type
           rdf:resource="http://purl.org/dc/dcmitype/StillImage" /><dc:title></dc:title></cc:Work></rdf:RDF></metadata><defs
     id="defs299"><linearGradient
       id="linearGradient3578"><stop
         id="stop3580"
         offset="0"
         style="stop-color:#ffffff;stop-opacity:0.53846157;" /><stop
         id="stop3582"
         offset="1"
         style="stop-color:#83bbbc;stop-opacity:0.45384616;" /></linearGradient><linearGradient
       id="linearGradient3571"><stop
         id="stop3573"
         offset="0"
         style="stop-color:#ffffff;stop-opacity:0.53846157;" /><stop
         id="stop3575"
         offset="1"
         style="stop-color:#83bbbc;stop-opacity:0.45384616;" /></linearGradient><linearGradient
       id="linearGradient5146-8"><stop
         id="stop5148-3"
         offset="0"
         style="stop-color:#ffffff;stop-opacity:0.53846157;" /><stop
         id="stop5150-5"
         offset="1"
         style="stop-color:#83bbbc;stop-opacity:0.45384616;" /></linearGradient><linearGradient
       id="linearGradient6555-5"
       spreadMethod="pad"
       gradientTransform="matrix(0.0702506,-0.18711,-0.18711,-0.0702506,150.96777,404.4563)"
       gradientUnits="userSpaceOnUse"
       y2="126.50391"
       x2="141.70703"
       y1="126.50391"
       x1="82.511719"><stop
         id="stop6557-5"
         offset="0"
         style="stop-opacity:1;stop-color:#1f1a17" /><stop
         id="stop6559-7"
         offset="0.490196"
         style="stop-opacity:1;stop-color:#f8c300" /><stop
         id="stop6561-5"
         offset="1"
         style="stop-opacity:1;stop-color:#1f1a17" /></linearGradient><clipPath
       clipPathUnits="userSpaceOnUse"
       id="clipPath106"><path
         inkscape:connector-curvature="0"
         d="m 0,0 595.276,0 0,396.85 L 0,396.85 0,0 z"
         id="path108-1" /></clipPath><linearGradient
       id="linearGradient6555"
       spreadMethod="pad"
       gradientTransform="matrix(0.0702506,-0.18711,-0.18711,-0.0702506,150.96777,404.4563)"
       gradientUnits="userSpaceOnUse"
       y2="126.50391"
       x2="141.70703"
       y1="126.50391"
       x1="82.511719"><stop
         id="stop6557"
         offset="0"
         style="stop-opacity:1;stop-color:#1f1a17" /><stop
         id="stop6559"
         offset="0.490196"
         style="stop-opacity:1;stop-color:#f8c300" /><stop
         id="stop6561"
         offset="1"
         style="stop-opacity:1;stop-color:#1f1a17" /></linearGradient><filter
       color-interpolation-filters="sRGB"
       id="filter4519"
       inkscape:collect="always"><feGaussianBlur
         id="feGaussianBlur4521"
         stdDeviation="0.63913367"
         inkscape:collect="always" /></filter><filter
       color-interpolation-filters="sRGB"
       id="filter4515"
       inkscape:collect="always"><feGaussianBlur
         id="feGaussianBlur4517"
         stdDeviation="0.63913367"
         inkscape:collect="always" /></filter><filter
       color-interpolation-filters="sRGB"
       height="1.1722187"
       y="-0.086109363"
       width="1.2091095"
       x="-0.10455476"
       id="filter4511"
       inkscape:collect="always"><feGaussianBlur
         id="feGaussianBlur4513"
         stdDeviation="0.82926475"
         inkscape:collect="always" /></filter><filter
       color-interpolation-filters="sRGB"
       height="1.1772667"
       y="-0.088633358"
       width="1.214983"
       x="-0.10749151"
       id="filter4507"
       inkscape:collect="always"><feGaussianBlur
         id="feGaussianBlur4509"
         stdDeviation="0.82926475"
         inkscape:collect="always" /></filter><filter
       color-interpolation-filters="sRGB"
       height="1.1772667"
       y="-0.088633358"
       width="1.2313724"
       x="-0.11568621"
       id="filter4503"
       inkscape:collect="always"><feGaussianBlur
         id="feGaussianBlur4505"
         stdDeviation="0.82926475"
         inkscape:collect="always" /></filter><filter
       color-interpolation-filters="sRGB"
       height="1.1745775"
       y="-0.08728873"
       width="1.2237495"
       x="-0.11187477"
       id="filter4499"
       inkscape:collect="always"><feGaussianBlur
         id="feGaussianBlur4501"
         stdDeviation="0.82926475"
         inkscape:collect="always" /></filter><filter
       color-interpolation-filters="sRGB"
       height="1.1772572"
       y="-0.08862862"
       width="1.2145793"
       x="-0.10728968"
       id="filter4495"
       inkscape:collect="always"><feGaussianBlur
         id="feGaussianBlur4497"
         stdDeviation="0.82926475"
         inkscape:collect="always" /></filter><filter
       color-interpolation-filters="sRGB"
       height="1.1772667"
       y="-0.088633358"
       width="1.2174087"
       x="-0.10870429"
       id="filter4491"
       inkscape:collect="always"><feGaussianBlur
         id="feGaussianBlur4493"
         stdDeviation="0.82926475"
         inkscape:collect="always" /></filter><filter
       color-interpolation-filters="sRGB"
       id="filter4487"
       inkscape:collect="always"><feGaussianBlur
         id="feGaussianBlur4489"
         stdDeviation="0.82926475"
         inkscape:collect="always" /></filter><filter
       color-interpolation-filters="sRGB"
       id="filter4483"
       inkscape:collect="always"><feGaussianBlur
         id="feGaussianBlur4485"
         stdDeviation="0.82926475"
         inkscape:collect="always" /></filter><linearGradient
       id="linearGradient5146"><stop
         id="stop5148"
         offset="0"
         style="stop-color:#ffffff;stop-opacity:1;" /><stop
         id="stop5150"
         offset="1"
         style="stop-color:#83bbbc;stop-opacity:1;" /></linearGradient><style
       id="style2299"
       type="text/css">
   
    .fil2 {fill:none}
    .fil1 {fill:#183884;fill-rule:nonzero}
    .fil0 {fill:#C4261D;fill-rule:nonzero}
   
  </style><linearGradient
       inkscape:collect="always"
       xlink:href="#linearGradient5367"
       id="linearGradient5425"
       gradientUnits="userSpaceOnUse"
       x1="220.00002"
       y1="448.70697"
       x2="220.00002"
       y2="1568.1895"
       gradientTransform="matrix(0.5148284,0,0,0.5148284,182.23633,61.880122)" /><linearGradient
       inkscape:collect="always"
       xlink:href="#linearGradient5373"
       id="linearGradient5422"
       gradientUnits="userSpaceOnUse"
       x1="208.5625"
       y1="192.27547"
       x2="208.5625"
       y2="563.70404"
       gradientTransform="matrix(0.5148284,0,0,0.5148284,182.23633,61.880122)" /><pattern
       patternUnits="userSpaceOnUse"
       width="86.873108"
       height="73.318443"
       patternTransform="translate(-321.22852,668.50421)"
       id="pattern5394"><rect
         ry="0"
         y="0"
         x="0"
         height="73.318443"
         width="86.873108"
         id="rect5392"
         style="opacity:1;fill:#000000;fill-opacity:1;fill-rule:nonzero;stroke:none;stroke-width:4;stroke-linejoin:round;stroke-miterlimit:4;stroke-dasharray:none;stroke-opacity:1" /></pattern><linearGradient
       inkscape:collect="always"
       xlink:href="#linearGradient5373"
       id="linearGradient5388"
       gradientUnits="userSpaceOnUse"
       x1="208.5625"
       y1="192.27547"
       x2="208.5625"
       y2="563.70404" /><linearGradient
       inkscape:collect="always"
       xlink:href="#linearGradient5367"
       id="linearGradient5386"
       gradientUnits="userSpaceOnUse"
       x1="220.00002"
       y1="448.70697"
       x2="220.00002"
       y2="1568.1895" /><linearGradient
       inkscape:collect="always"
       xlink:href="#linearGradient4280"
       id="linearGradient4286"
       x1="254.28572"
       y1="320.93359"
       x2="251.42857"
       y2="31.934885"
       gradientUnits="userSpaceOnUse"
       gradientTransform="translate(-694.28571,94.285714)" /><linearGradient
       inkscape:collect="always"
       id="linearGradient4280"><stop
         style="stop-color:#005197;stop-opacity:1;"
         offset="0"
         id="stop4282" /><stop
         style="stop-color:#005197;stop-opacity:0;"
         offset="1"
         id="stop4284" /></linearGradient><linearGradient
       id="linearGradient5367"><stop
         style="stop-color:#ff7f2a;stop-opacity:1;"
         offset="0"
         id="stop5369" /><stop
         style="stop-color:#ff7f2a;stop-opacity:0;"
         offset="1"
         id="stop5371" /></linearGradient><linearGradient
       id="linearGradient5373"><stop
         style="stop-color:#ffffff;stop-opacity:1;"
         offset="0"
         id="stop5375" /><stop
         style="stop-color:#ffffff;stop-opacity:0;"
         offset="1"
         id="stop5377" /></linearGradient><clipPath
       clipPathUnits="userSpaceOnUse"
       id="clipPath2300"><path
         d="m 0,0 594.075,0 0,840.192 L 0,840.192 0,0 Z"
         id="path2302"
         inkscape:connector-curvature="0" /></clipPath><clipPath
       clipPathUnits="userSpaceOnUse"
       id="clipPath2144"><path
         d="m 0.054,0.012 594,0 0,840.12 -594,0 0,-840.12 z"
         id="path2146"
         inkscape:connector-curvature="0" /></clipPath><clipPath
       clipPathUnits="userSpaceOnUse"
       id="clipPath1854"><path
         d="m 0,0 594.075,0 0,840.192 L 0,840.192 0,0 Z"
         id="path1856"
         inkscape:connector-curvature="0" /></clipPath><clipPath
       clipPathUnits="userSpaceOnUse"
       id="clipPath1840"><path
         d="m 0.054,809.762 168.191,0 0,1.83 -168.191,0 0,-1.83 z"
         id="path1842"
         inkscape:connector-curvature="0" /></clipPath><clipPath
       clipPathUnits="userSpaceOnUse"
       id="clipPath1802"><path
         d="m 0,0 594.075,0 0,840.192 L 0,840.192 0,0 Z"
         id="path1804"
         inkscape:connector-curvature="0" /></clipPath><clipPath
       clipPathUnits="userSpaceOnUse"
       id="clipPath1786"><path
         d="m 0.054,704.353 137.024,0 0,1.83 -137.024,0 0,-1.83 z"
         id="path1788"
         inkscape:connector-curvature="0" /></clipPath><clipPath
       clipPathUnits="userSpaceOnUse"
       id="clipPath1750"><path
         d="m 0,0 594.075,0 0,840.192 L 0,840.192 0,0 Z"
         id="path1752"
         inkscape:connector-curvature="0" /></clipPath><clipPath
       clipPathUnits="userSpaceOnUse"
       id="clipPath1738"><path
         d="m 0.054,651.69 254.018,0 0,1.829 -254.018,0 0,-1.829 z"
         id="path1740"
         inkscape:connector-curvature="0" /></clipPath><clipPath
       clipPathUnits="userSpaceOnUse"
       id="clipPath1710"><path
         d="m 0,0 594.075,0 0,840.192 L 0,840.192 0,0 Z"
         id="path1712"
         inkscape:connector-curvature="0" /></clipPath><clipPath
       clipPathUnits="userSpaceOnUse"
       id="clipPath1698"><path
         d="m 0.054,598.566 594,0 0,1.834 -594,0 0,-1.834 z"
         id="path1700"
         inkscape:connector-curvature="0" /></clipPath><clipPath
       clipPathUnits="userSpaceOnUse"
       id="clipPath1670"><path
         d="m 0,0 594.075,0 0,840.192 L 0,840.192 0,0 Z"
         id="path1672"
         inkscape:connector-curvature="0" /></clipPath><clipPath
       clipPathUnits="userSpaceOnUse"
       id="clipPath1658"><path
         d="m 0.054,598.566 594,0 0,1.834 -594,0 0,-1.834 z"
         id="path1660"
         inkscape:connector-curvature="0" /></clipPath><clipPath
       clipPathUnits="userSpaceOnUse"
       id="clipPath1630"><path
         d="m 0,0 594.075,0 0,840.192 L 0,840.192 0,0 Z"
         id="path1632"
         inkscape:connector-curvature="0" /></clipPath><clipPath
       clipPathUnits="userSpaceOnUse"
       id="clipPath1618"><path
         d="m 0.054,439.784 594,0 0,1.828 -594,0 0,-1.828 z"
         id="path1620"
         inkscape:connector-curvature="0" /></clipPath><clipPath
       clipPathUnits="userSpaceOnUse"
       id="clipPath1570"><path
         d="m 0,0 594.075,0 0,840.192 L 0,840.192 0,0 Z"
         id="path1572"
         inkscape:connector-curvature="0" /></clipPath><clipPath
       clipPathUnits="userSpaceOnUse"
       id="clipPath1558"><path
         d="m 0.054,439.784 594,0 0,1.828 -594,0 0,-1.828 z"
         id="path1560"
         inkscape:connector-curvature="0" /></clipPath><clipPath
       clipPathUnits="userSpaceOnUse"
       id="clipPath1528"><path
         d="m 0,0 594.075,0 0,840.192 L 0,840.192 0,0 Z"
         id="path1530"
         inkscape:connector-curvature="0" /></clipPath><clipPath
       clipPathUnits="userSpaceOnUse"
       id="clipPath1516"><path
         d="m 0.054,387.202 594,0 0,1.834 -594,0 0,-1.834 z"
         id="path1518"
         inkscape:connector-curvature="0" /></clipPath><clipPath
       clipPathUnits="userSpaceOnUse"
       id="clipPath1482"><path
         d="m 0,0 594.075,0 0,840.192 L 0,840.192 0,0 Z"
         id="path1484"
         inkscape:connector-curvature="0" /></clipPath><clipPath
       clipPathUnits="userSpaceOnUse"
       id="clipPath1472"><path
         d="m 0.054,387.202 594,0 0,1.834 -594,0 0,-1.834 z"
         id="path1474"
         inkscape:connector-curvature="0" /></clipPath><clipPath
       clipPathUnits="userSpaceOnUse"
       id="clipPath1446"><path
         d="m 0,0 594.075,0 0,840.192 L 0,840.192 0,0 Z"
         id="path1448"
         inkscape:connector-curvature="0" /></clipPath><clipPath
       clipPathUnits="userSpaceOnUse"
       id="clipPath1432"><path
         d="m 0.054,333.792 594,0 0,1.829 -594,0 0,-1.829 z"
         id="path1434"
         inkscape:connector-curvature="0" /></clipPath><clipPath
       clipPathUnits="userSpaceOnUse"
       id="clipPath1374"><path
         d="m 0,0 594.075,0 0,840.192 L 0,840.192 0,0 Z"
         id="path1376"
         inkscape:connector-curvature="0" /></clipPath><clipPath
       clipPathUnits="userSpaceOnUse"
       id="clipPath1364"><path
         d="m 0.054,333.792 594,0 0,1.829 -594,0 0,-1.829 z"
         id="path1366"
         inkscape:connector-curvature="0" /></clipPath><clipPath
       clipPathUnits="userSpaceOnUse"
       id="clipPath1348"><path
         d="m 0,0 594.075,0 0,840.192 L 0,840.192 0,0 Z"
         id="path1350"
         inkscape:connector-curvature="0" /></clipPath><clipPath
       clipPathUnits="userSpaceOnUse"
       id="clipPath1334"><path
         d="m 0.054,41.025 169.521,0 0,1.83 -169.521,0 0,-1.83 z"
         id="path1336"
         inkscape:connector-curvature="0" /></clipPath><clipPath
       clipPathUnits="userSpaceOnUse"
       id="clipPath1316"><path
         d="m 0,0 594.075,0 0,840.192 L 0,840.192 0,0 Z"
         id="path1318"
         inkscape:connector-curvature="0" /></clipPath><clipPath
       clipPathUnits="userSpaceOnUse"
       id="clipPath1304"><path
         d="m 0.054,95.1 225.409,0 0,1.832 -225.409,0 0,-1.832 z"
         id="path1306"
         inkscape:connector-curvature="0" /></clipPath><clipPath
       clipPathUnits="userSpaceOnUse"
       id="clipPath1278"><path
         d="m 0,0 594.075,0 0,840.192 L 0,840.192 0,0 Z"
         id="path1280"
         inkscape:connector-curvature="0" /></clipPath><clipPath
       clipPathUnits="userSpaceOnUse"
       id="clipPath1266"><path
         d="m 0.054,174.887 136.546,0 0,1.829 -136.546,0 0,-1.829 z"
         id="path1268"
         inkscape:connector-curvature="0" /></clipPath><clipPath
       clipPathUnits="userSpaceOnUse"
       id="clipPath1246"><path
         d="m 0,0 594.075,0 0,840.192 L 0,840.192 0,0 Z"
         id="path1248"
         inkscape:connector-curvature="0" /></clipPath><clipPath
       clipPathUnits="userSpaceOnUse"
       id="clipPath1232"><path
         d="m 0.054,539.287 296.983,0 0,1.833 -296.983,0 0,-1.833 z"
         id="path1234"
         inkscape:connector-curvature="0" /></clipPath><clipPath
       clipPathUnits="userSpaceOnUse"
       id="clipPath1182"><path
         d="m 0,0 594.075,0 0,840.192 L 0,840.192 0,0 Z"
         id="path1184"
         inkscape:connector-curvature="0" /></clipPath><clipPath
       clipPathUnits="userSpaceOnUse"
       id="clipPath1170"><path
         d="m 0.054,489.37 593.499,0 0,1.832 -593.499,0 0,-1.832 z"
         id="path1172"
         inkscape:connector-curvature="0" /></clipPath><clipPath
       clipPathUnits="userSpaceOnUse"
       id="clipPath1128"><path
         d="m 0,0 594.075,0 0,840.192 L 0,840.192 0,0 Z"
         id="path1130"
         inkscape:connector-curvature="0" /></clipPath><clipPath
       clipPathUnits="userSpaceOnUse"
       id="clipPath1116"><path
         d="m 0.054,280.716 189.564,0 0,1.833 -189.564,0 0,-1.833 z"
         id="path1118"
         inkscape:connector-curvature="0" /></clipPath><clipPath
       clipPathUnits="userSpaceOnUse"
       id="clipPath1084"><path
         d="m 0,0 594.075,0 0,840.192 L 0,840.192 0,0 Z"
         id="path1086"
         inkscape:connector-curvature="0" /></clipPath><clipPath
       clipPathUnits="userSpaceOnUse"
       id="clipPath1072"><path
         d="m 506.041,227.969 88.013,0 0,1.829 -88.013,0 0,-1.829 z"
         id="path1074"
         inkscape:connector-curvature="0" /></clipPath><clipPath
       clipPathUnits="userSpaceOnUse"
       id="clipPath1050"><path
         d="m 0,0 594.075,0 0,840.192 L 0,840.192 0,0 Z"
         id="path1052"
         inkscape:connector-curvature="0" /></clipPath><clipPath
       clipPathUnits="userSpaceOnUse"
       id="clipPath1036"><path
         d="m 0.054,227.97 401.802,0 0,1.83 -401.802,0 0,-1.83 z"
         id="path1038"
         inkscape:connector-curvature="0" /></clipPath><clipPath
       clipPathUnits="userSpaceOnUse"
       id="clipPath998"><path
         d="m 0,0 594.075,0 0,840.192 L 0,840.192 0,0 Z"
         id="path1000"
         inkscape:connector-curvature="0" /></clipPath><clipPath
       clipPathUnits="userSpaceOnUse"
       id="clipPath986"><path
         d="m 0.054,201.343 189.877,0 0,1.83 -189.877,0 0,-1.83 z"
         id="path988"
         inkscape:connector-curvature="0" /></clipPath><clipPath
       clipPathUnits="userSpaceOnUse"
       id="clipPath960"><path
         d="m 0,0 594.075,0 0,840.192 L 0,840.192 0,0 Z"
         id="path962"
         inkscape:connector-curvature="0" /></clipPath><clipPath
       clipPathUnits="userSpaceOnUse"
       id="clipPath944"><path
         d="m 0.054,147.93 263.664,0 0,1.829 -263.664,0 0,-1.829 z"
         id="path946"
         inkscape:connector-curvature="0" /></clipPath><clipPath
       clipPathUnits="userSpaceOnUse"
       id="clipPath860"><path
         d="m 0,0 594.075,0 0,840.192 L 0,840.192 0,0 Z"
         id="path862"
         inkscape:connector-curvature="0" /></clipPath><clipPath
       clipPathUnits="userSpaceOnUse"
       id="clipPath848"><path
         d="m 558.968,69.71 1.834,0 0,770.422 -1.834,0 0,-770.422 z"
         id="path850"
         inkscape:connector-curvature="0" /></clipPath><clipPath
       clipPathUnits="userSpaceOnUse"
       id="clipPath776"><path
         d="m 0,0 594.075,0 0,840.192 L 0,840.192 0,0 Z"
         id="path778"
         inkscape:connector-curvature="0" /></clipPath><clipPath
       clipPathUnits="userSpaceOnUse"
       id="clipPath764"><path
         d="m 400.023,183.186 1.833,0 0,450.59 -1.833,0 0,-450.59 z"
         id="path766"
         inkscape:connector-curvature="0" /></clipPath><clipPath
       clipPathUnits="userSpaceOnUse"
       id="clipPath688"><path
         d="m 0,0 594.075,0 0,840.192 L 0,840.192 0,0 Z"
         id="path690"
         inkscape:connector-curvature="0" /></clipPath><clipPath
       clipPathUnits="userSpaceOnUse"
       id="clipPath678"><path
         d="m 29.254,41.555 1.833,0 0,798.577 -1.833,0 0,-798.577 z"
         id="path680"
         inkscape:connector-curvature="0" /></clipPath><clipPath
       clipPathUnits="userSpaceOnUse"
       id="clipPath592"><path
         d="m 0,0 594.075,0 0,840.192 L 0,840.192 0,0 Z"
         id="path594"
         inkscape:connector-curvature="0" /></clipPath><clipPath
       clipPathUnits="userSpaceOnUse"
       id="clipPath580"><path
         d="m 82.323,95.549 1.834,0 0,744.583 -1.834,0 0,-744.583 z"
         id="path582"
         inkscape:connector-curvature="0" /></clipPath><clipPath
       clipPathUnits="userSpaceOnUse"
       id="clipPath474"><path
         d="m 0,0 594.075,0 0,840.192 L 0,840.192 0,0 Z"
         id="path476"
         inkscape:connector-curvature="0" /></clipPath><clipPath
       clipPathUnits="userSpaceOnUse"
       id="clipPath464"><path
         d="m 135.244,0.888 1.834,0 0,839.244 -1.834,0 0,-839.244 z"
         id="path466"
         inkscape:connector-curvature="0" /></clipPath><clipPath
       clipPathUnits="userSpaceOnUse"
       id="clipPath444"><path
         d="m 0,0 594.075,0 0,840.192 L 0,840.192 0,0 Z"
         id="path446"
         inkscape:connector-curvature="0" /></clipPath><clipPath
       clipPathUnits="userSpaceOnUse"
       id="clipPath432"><path
         d="m 505.642,122.642 1.834,0 0,551.551 -1.834,0 0,-551.551 z"
         id="path434"
         inkscape:connector-curvature="0" /></clipPath><clipPath
       clipPathUnits="userSpaceOnUse"
       id="clipPath314"><path
         d="m 0,0 594.075,0 0,840.192 L 0,840.192 0,0 Z"
         id="path316"
         inkscape:connector-curvature="0" /></clipPath><clipPath
       clipPathUnits="userSpaceOnUse"
       id="clipPath302"><path
         d="m 188.158,92.703 1.832,0 0,606.441 -1.832,0 0,-606.441 z"
         id="path304"
         inkscape:connector-curvature="0" /></clipPath><clipPath
       clipPathUnits="userSpaceOnUse"
       id="clipPath16"><path
         d="m 0,0 594.075,0 0,840.192 L 0,840.192 0,0 Z"
         id="path18"
         inkscape:connector-curvature="0" /></clipPath></defs><sodipodi:namedview
     pagecolor="#ffffff"
     bordercolor="#666666"
     borderopacity="1"
     objecttolerance="10"
     gridtolerance="10"
     guidetolerance="10"
     inkscape:pageopacity="0"
     inkscape:pageshadow="2"
     inkscape:window-width="1598"
     inkscape:window-height="898"
     id="namedview297"
     showgrid="false"
     fit-margin-top="0"
     fit-margin-left="0"
     fit-margin-right="0"
     fit-margin-bottom="0"
     inkscape:zoom="0.7929108"
     inkscape:cx="429.12401"
     inkscape:cy="404.23485"
     inkscape:window-x="0"
     inkscape:window-y="-22"
     inkscape:window-maximized="1"
     inkscape:current-layer="svg2"
     showguides="false" /><g
     id="g3563"
     transform="translate(-1205.3229,-11900.485)"
     style="fill:#000000;filter:url(#filter4483)"><g
       id="g3565"
       style="fill:#000000"><path
         id="path3567"
         d="m 345.23,245.898 0.872,-1.612 c -8.086,-4.307 -16.404,-7.133 -24.769,-8.328 -3.465,-0.491 -6.956,-0.74 -10.377,-0.74 -27.598,0 -52.288,16.601 -61.44,41.308 l 8.883,3.289 c 7.781,-21.009 28.903,-35.124 52.558,-35.124 2.978,0 6.021,0.217 9.042,0.646 16.037,2.291 31.447,11.039 45.803,26 l 5.229,-5.019 c -7.064,-7.549 -15.685,-14.948 -25.801,-20.42 z"
         inkscape:connector-curvature="0"
         style="fill:#000000" /><path
         id="path3569"
         d="m 280.472,356.516 c -23.789,-11.059 -39.16,-34.446 -39.16,-59.582 0,-12.716 3.727,-25.022 10.776,-35.588 2.682,-4.024 5.851,-7.796 9.416,-11.21 l 4.367,4.562 c -3.233,3.094 -6.103,6.509 -8.53,10.15 -6.355,9.526 -9.715,20.62 -9.715,32.085 0,23.038 13.605,43.675 35.508,53.855 l -2.662,5.728 z"
         inkscape:connector-curvature="0"
         style="fill:#000000" /><path
         id="path3571"
         d="m 396.354,304.689 -2.738,-6.389 c -0.25,-0.493 -0.595,-1.154 -1.013,-1.933 -4.795,9.08 -30.021,53.416 -71.498,59.339 -3.387,0.484 -6.88,1.592 -10.183,1.592 -9.66,-0.004 -18.926,-2.037 -27.538,-6.044 l -3.162,5.795 c 9.61,4.471 19.938,6.739 30.705,6.743 3.651,0 7.397,-0.271 11.134,-0.805 40.02,-5.716 65.279,-42.317 74.582,-58.423 l -0.289,0.125 z"
         inkscape:connector-curvature="0"
         style="fill:#000000" /><path
         id="path3573"
         d="m 405.128,335.549 c -8.114,11.026 -17.068,20.572 -26.674,28.371 l 2.318,2.854 c 9.499,-7.713 18.374,-17.07 26.441,-27.847 16.509,22.525 43.977,49.245 83.794,54.929 l 0.943,-6.603 c -40.696,-5.811 -67.953,-34.586 -84.16,-59.075 -0.763,-1.156 -2.662,7.371 -2.662,7.371 z"
         inkscape:connector-curvature="0"
         style="fill:#000000" /><path
         id="path3575"
         d="m 511.482,362.999 c -5.256,0.344 -10.605,0.145 -15.971,-0.622 -12.228,-1.748 -24.078,-6.63 -35.223,-14.511 l -3.465,4.898 c 11.929,8.436 24.659,13.668 37.838,15.552 3.966,0.567 7.967,0.854 11.891,0.854 1.651,0 3.293,-0.063 4.93,-0.163 v -6.008 z"
         inkscape:connector-curvature="0"
         style="fill:#000000" /><path
         id="path3577"
         d="m 399.523,303.331 -3.17,1.358 -2.738,-6.389 c -2.051,-4.038 -9.736,-18.259 -22.584,-31.983 l -5.229,5.019 c 11.268,11.742 18.037,23.381 20.425,27.84 l 9.612,16.774 8.217,-4.711 -4.533,-7.908 z"
         inkscape:connector-curvature="0"
         style="fill:#000000" /><path
         id="path3579"
         d="m 506.553,357.661 c -3.405,0 -6.858,-0.248 -10.263,-0.738 -42.807,-6.113 -67.851,-49.576 -72.437,-58.228 l 6.623,-3.51 c 2.628,4.957 26.83,48.599 66.878,54.318 3.056,0.439 6.148,0.663 9.198,0.663 v 7.495 z"
         inkscape:connector-curvature="0"
         style="fill:#000000" /><path
         id="path3581"
         d="m 566.199,280.234 c -2.853,-9.264 -8.175,-17.812 -15.393,-24.721 -9.459,-9.048 -21.471,-14.832 -34.738,-16.726 l 1.213,-8.492 c 15.051,2.147 28.694,8.725 39.456,19.02 8.272,7.918 14.379,17.736 17.661,28.394 l -8.199,2.525 z"
         inkscape:connector-curvature="0"
         style="fill:#000000" /><path
         id="path3583"
         d="m 451.607,252.945 -4.043,-4.604 c 14.56,-12.787 30.402,-20.478 47.089,-22.858 3.94,-0.563 7.934,-0.849 11.867,-0.849 20.32,0 39.357,7.507 53.604,21.139 l -4.236,4.428 c -13.101,-12.535 -30.633,-19.439 -49.367,-19.439 -3.645,0 -7.346,0.266 -11.001,0.788 -15.489,2.209 -30.263,9.408 -43.913,21.395 z"
         inkscape:connector-curvature="0"
         style="fill:#000000" /><path
         id="path3585"
         d="m 420.48,312.622 -21.253,-10.11 5.055,-10.627 c 3.283,-6.899 15.691,-30.904 37.54,-50.085 l 8.844,-7.764 15.527,17.688 -8.844,7.764 c -18.944,16.63 -29.825,38.328 -31.813,42.509 l -5.056,10.625 z"
         inkscape:connector-curvature="0"
         style="fill:#000000" /><path
         id="path3587"
         d="m 240.581,325.311 c -3.925,-8.957 -5.915,-18.505 -5.915,-28.377 0,-19.555 7.901,-37.88 22.248,-51.602 5.012,-4.794 10.668,-8.883 16.812,-12.153 l 3.455,6.49 c -5.55,2.955 -10.659,6.647 -15.186,10.978 -12.882,12.32 -19.977,28.759 -19.977,46.287 0,8.851 1.782,17.404 5.296,25.426 l -6.733,2.951 z"
         inkscape:connector-curvature="0"
         style="fill:#000000" /><path
         id="path3589"
         d="m 265.907,254.738 -4.439,-4.643 c 13.137,-12.562 30.713,-19.48 49.489,-19.48 3.66,0 7.372,0.265 11.032,0.787 8.964,1.281 17.812,4.258 26.297,8.846 l -3.055,5.65 c -7.816,-4.226 -15.941,-6.963 -24.151,-8.137 -3.359,-0.479 -6.766,-0.723 -10.123,-0.723 -17.114,10e-4 -33.113,6.287 -45.05,17.7 z"
         inkscape:connector-curvature="0"
         style="fill:#000000" /><path
         id="path3591"
         d="m 221.919,296.934 h -3.922 c 0,-24.146 9.729,-46.749 27.395,-63.645 l 2.711,2.834 c -16.885,16.149 -26.184,37.745 -26.184,60.811 z"
         inkscape:connector-curvature="0"
         style="fill:#000000" /><path
         id="path3593"
         d="m 377.118,229.892 c -15.847,-12.668 -33.217,-20.424 -51.628,-23.053 -4.822,-0.688 -9.712,-1.036 -14.533,-1.036 -19.073,0 -37.384,5.363 -52.953,15.511 l -2.855,-4.381 c 16.42,-10.703 35.719,-16.36 55.809,-16.36 5.067,0 10.206,0.366 15.272,1.089 19.349,2.763 37.568,10.887 54.154,24.145 l -3.266,4.085 z"
         inkscape:connector-curvature="0"
         style="fill:#000000" /><path
         id="path3595"
         d="m 413.901,263.84 -10.318,-7.281 c 16.506,-23.396 45.024,-52.546 87.146,-58.56 l 1.785,12.502 c -37.663,5.378 -63.538,31.974 -78.613,53.339 z"
         inkscape:connector-curvature="0"
         style="fill:#000000" /><path
         id="path3597"
         d="m 425.715,265.347 -7.301,-5.52 c 14.446,-19.11 39.062,-42.947 74.293,-47.974 4.582,-0.655 9.23,-0.987 13.813,-0.987 11.874,0 23.376,2.166 34.187,6.438 l -3.363,8.512 c -9.735,-3.847 -20.105,-5.797 -30.823,-5.797 -4.151,0 -8.363,0.302 -12.52,0.896 -32.146,4.586 -54.877,26.693 -68.286,44.432 z"
         inkscape:connector-curvature="0"
         style="fill:#000000" /><path
         id="path3599"
         d="m 410.996,280.249 -10.215,-4.158 3.037,-7.463 0.262,-0.413 c 13.188,-20.874 42.108,-56.862 87.627,-63.356 4.915,-0.702 9.899,-1.058 14.813,-1.058 v 11.029 c -4.394,0 -8.854,0.319 -13.254,0.947 -38.844,5.542 -64.693,34.458 -79.603,57.918 l -2.667,6.554 z"
         inkscape:connector-curvature="0"
         style="fill:#000000" /><path
         id="path3601"
         d="m 410.822,268.945 -5.285,-6.484 c -8.783,-12.447 -18.619,-23.062 -29.235,-31.549 l 4.898,-6.128 c 11.16,8.922 21.479,20.038 30.667,33.04 l 5.031,6.158 -6.076,4.963 z"
         inkscape:connector-curvature="0"
         style="fill:#000000" /><path
         id="path3603"
         d="m 573.146,232.169 c -17.769,-17.003 -41.43,-26.366 -66.625,-26.366 -4.817,0 -9.706,0.349 -14.53,1.036 l -0.738,-5.178 c 5.067,-0.723 10.205,-1.089 15.269,-1.089 26.549,0 51.494,9.879 70.24,27.817 l -3.616,3.78 z"
         inkscape:connector-curvature="0"
         style="fill:#000000" /><path
         id="path3605"
         d="m 324.215,378.084 -1.906,-13.346 c 53.362,-7.618 79.951,-69.773 80.213,-70.4 1.182,-2.841 29.705,-69.851 90.745,-78.562 l 1.904,13.346 c -53.525,7.638 -79.944,69.772 -80.205,70.399 -1.186,2.85 -29.727,69.85 -90.751,78.563 z"
         inkscape:connector-curvature="0"
         style="fill:#000000" /><path
         id="path3607"
         d="m 268.146,364.592 5.853,-10.072 c 14.362,8.344 31.006,11.457 48.135,9.006 l 1.65,11.526 c 11.158,-1.593 22.06,-5.413 32.401,-11.353 l -9.766,-17.004 c -8.176,4.696 -16.726,7.706 -25.413,8.946 -3.368,0.481 -6.759,0.725 -10.084,0.725 -16.981,-10e-4 -32.855,-6.243 -44.698,-17.576 -5.736,-5.49 -10.21,-11.846 -13.295,-18.889 l -16.833,7.373 c 4.019,9.171 9.881,17.582 17.419,24.796 l -0.848,0.886 c 4.715,4.512 9.913,8.398 15.479,11.636 z"
         inkscape:connector-curvature="0"
         style="fill:#000000" /><path
         id="path3609"
         d="m 310.927,381.103 c -23.386,-0.001 -45.333,-8.682 -61.805,-24.441 l 3.701,-3.868 c 15.471,14.803 36.104,22.955 58.098,22.956 4.24,0 8.554,-0.31 12.827,-0.921 44.007,-6.285 70.607,-43.525 82.582,-65.257 l 3.037,-7.188 4.932,2.084 -3.211,7.564 c -12.424,22.588 -40.193,61.472 -86.582,68.096 -4.524,0.646 -9.092,0.975 -13.579,0.975 z"
         inkscape:connector-curvature="0"
         style="fill:#000000" /><path
         id="path3611"
         d="m 310.927,395.585 c -27.139,-0.004 -52.641,-10.112 -71.815,-28.463 l 6.779,-7.084 c 17.341,16.597 40.436,25.738 65.031,25.742 4.719,0 9.51,-0.344 14.243,-1.022 18.344,-2.621 35.622,-10.432 51.357,-23.216 l 6.182,7.609 c -17.134,13.92 -36.025,22.437 -56.15,25.312 -5.191,0.744 -10.449,1.122 -15.627,1.122 z"
         inkscape:connector-curvature="0"
         style="fill:#000000" /><path
         id="path3613"
         d="m 325.601,387.789 -1.213,-8.492 c 39.533,-5.645 65.689,-35.059 80.683,-58.772 0.459,-0.796 4.496,-7.801 6.042,-10.741 l 7.594,3.992 c -1.712,3.255 -6.065,10.794 -6.25,11.113 l -0.087,0.146 c -15.953,25.253 -43.955,56.641 -86.769,62.754 z"
         inkscape:connector-curvature="0"
         style="fill:#000000" /><path
         id="path3615"
         d="m 268.458,364.057 c -24.613,-14.292 -39.307,-39.385 -39.307,-67.123 0,-4.036 0.317,-8.083 0.944,-12.027 l 6.051,0.961 c -0.575,3.628 -0.868,7.351 -0.868,11.066 0,25.529 13.554,48.642 36.256,61.824 l -3.076,5.299 z"
         inkscape:connector-curvature="0"
         style="fill:#000000" /><path
         id="path3617"
         d="m 238.933,286.309 -11.623,-1.844 c 3.364,-21.195 15.08,-39.924 32.991,-52.735 18.191,-13.013 40.842,-18.38 63.796,-15.105 5.169,0.739 10.318,1.945 15.307,3.584 l -3.674,11.18 c -4.335,-1.424 -8.809,-2.472 -13.297,-3.114 -40.727,-5.797 -77.413,19.682 -83.5,58.034 z"
         inkscape:connector-curvature="0"
         style="fill:#000000" /><path
         id="path3619"
         d="M 237.418,368.893 C 226.687,358.626 218.56,346.567 213.262,333.05 l 13.691,-5.367 c 4.514,11.515 11.455,21.805 20.631,30.584 l -10.166,10.626 z"
         inkscape:connector-curvature="0"
         style="fill:#000000" /><path
         id="path3621"
         d="m 310.927,388.842 c -25.394,-0.003 -49.241,-9.446 -67.157,-26.591 -16.307,-15.605 -26.196,-36.384 -27.847,-58.507 l -0.009,-0.159 -0.242,-6.491 8.572,-0.32 0.239,6.41 c 1.51,19.978 10.464,38.75 25.218,52.87 16.312,15.609 38.054,24.207 61.221,24.21 4.453,0 8.982,-0.325 13.465,-0.967 l 1.215,8.492 c -4.884,0.698 -9.822,1.053 -14.675,1.053 z"
         inkscape:connector-curvature="0"
         style="fill:#000000" /><path
         id="path3623"
         d="m 350.312,358.852 -2.665,-4.644 2.321,-1.332 c 30.274,-17.379 47.186,-50.602 50.269,-57.085 l 1.149,-2.417 4.834,2.299 -1.149,2.417 c -3.202,6.735 -20.781,41.258 -52.437,59.429 l -2.322,1.333 z"
         inkscape:connector-curvature="0"
         style="fill:#000000" /><path
         id="path3625"
         d="m 417.194,293.418 c -0.268,-0.643 -2.177,-5.146 -5.808,-11.729 l 1.363,-0.751 c -12.627,-22.914 -40.847,-62.358 -87.973,-69.085 -4.584,-0.655 -9.234,-0.987 -13.82,-0.987 v 9.152 c 4.154,0 8.368,0.302 12.526,0.896 5.095,0.728 9.944,1.895 14.571,3.399 l -3.348,10.179 c 43.5,14.308 65.375,65.454 65.586,65.956 1.206,2.899 30.249,71.119 92.633,80.023 l 2.586,-18.121 c -51.977,-7.419 -78.062,-68.328 -78.316,-68.932 z"
         inkscape:connector-curvature="0"
         style="fill:#000000" /><path
         id="path3627"
         d="m 588.917,296.934 h -7.354 c 0,-20.25 -8.935,-39.615 -24.514,-53.13 -16.736,-14.519 -39.445,-20.973 -62.312,-17.715 L 493.7,218.81 c 24.973,-3.564 49.821,3.523 68.168,19.439 17.19,14.912 27.049,36.302 27.049,58.685 z"
         inkscape:connector-curvature="0"
         style="fill:#000000" /><rect
         id="rect3629"
         height="61.699001"
         width="19.886999"
         y="266.091"
         x="301.64801"
         style="fill:#000000" /><rect
         id="rect3631"
         height="19.889999"
         width="61.695"
         y="286.99799"
         x="280.74301"
         style="fill:#000000" /><path
         id="path3633"
         d="m 607.156,305.922 -7.859,-0.729 c 0.251,-2.714 0.379,-5.492 0.379,-8.26 0,-24.208 -9.749,-46.866 -27.451,-63.803 l 5.457,-5.703 c 19.272,18.439 29.887,43.124 29.887,69.506 -10e-4,3.009 -0.139,6.034 -0.413,8.989 z"
         inkscape:connector-curvature="0"
         style="fill:#000000" /><path
         id="path3635"
         d="m 580.115,310.515 -5.131,-1.02 c 0.824,-4.148 1.242,-8.411 1.242,-12.669 0,-17.818 -7.21,-34.53 -20.301,-47.057 l 3.615,-3.779 c 14.133,13.523 21.916,31.577 21.916,50.836 10e-4,4.6 -0.451,9.205 -1.341,13.689 z"
         inkscape:connector-curvature="0"
         style="fill:#000000" /><path
         id="path3637"
         d="m 571.13,311.774 -11.875,-3.027 c 0.978,-3.834 1.473,-7.809 1.474,-11.814 0,-28.039 -24.317,-50.851 -54.208,-50.851 -2.91,0 -5.886,0.213 -8.845,0.632 -0.783,0.112 -1.564,0.241 -2.342,0.384 l -2.211,-12.055 c 0.938,-0.172 1.877,-0.326 2.827,-0.462 3.532,-0.501 7.087,-0.755 10.57,-0.755 36.648,0 66.464,28.311 66.464,63.107 -0.001,5.027 -0.625,10.019 -1.854,14.841 z"
         inkscape:connector-curvature="0"
         style="fill:#000000" /><path
         id="path3639"
         d="m 472.94,248.847 -1.413,-2.549 c -28.136,15.598 -44.606,46.13 -47.623,52.093 l -2.979,6.064 -3.151,-1.549 -1.299,2.885 11.18,5.02 5.012,-11.162 c 2.948,-5.463 25.839,-45.765 62.673,-52.552 l -1.108,-6.016 c -7.232,1.336 -14.381,3.938 -21.292,7.766 z"
         inkscape:connector-curvature="0"
         style="fill:#000000" /><path
         id="path3641"
         d="m 506.553,383.94 c -4.619,0 -9.324,-0.338 -13.984,-1.004 -20.805,-2.971 -40.108,-12.638 -57.375,-28.731 l 7.52,-8.068 c 15.586,14.527 32.885,23.235 51.415,25.882 4.951,0.706 9.925,0.976 14.812,0.861 l 0.258,11.027 c -0.883,0.021 -1.763,0.033 -2.646,0.033 z"
         inkscape:connector-curvature="0"
         style="fill:#000000" /></g></g><path
     style="fill:#000000;filter:url(#filter4487)"
     inkscape:connector-curvature="0"
     id="path3643"
     d="m -680.73524,-11554.604 7.04652,-22.454 h 6.25263 l 7.151,22.454 h -5.90673 l -1.24427,-4.594 h -6.45921 l -1.13979,4.594 h -5.70015 z m 9.94824,-17.134 -2.03697,8.223 h 4.24809 l -2.21112,-8.223 z" /><path
     style="fill:#000000;filter:url(#filter4491)"
     inkscape:connector-curvature="0"
     id="path3645"
     d="m -656.7252,-11577.058 h 9.05106 c 6.2178,0 8.56704,3.178 8.56704,7.497 0,3.074 -1.24308,5.423 -3.69561,6.735 l 4.38621,8.222 h -6.5637 l -3.38454,-7.116 h -2.79842 v 7.116 h -5.56204 v -22.454 z m 11.71137,7.531 c 0,-2.003 -0.72543,-3.005 -3.31728,-3.005 h -2.83205 v 6.356 h 2.93654 c 1.93488,0 3.21279,-0.863 3.21279,-3.351 z" /><path
     style="fill:#000000;filter:url(#filter4495)"
     inkscape:connector-curvature="0"
     id="path3647"
     d="m -634.6128,-11577.058 h 7.35758 c 8.39409,0 11.19252,3.974 11.19252,11.02 0,5.321 -1.62381,11.436 -11.15769,11.436 h -7.39241 v -22.456 z m 5.56202,4.526 v 13.336 h 2.10663 c 4.59519,0 4.93989,-2.799 4.93989,-6.599 0,-4.386 -0.44919,-6.735 -5.42391,-6.735 h -1.62261 z" /><path
     style="fill:#000000;filter:url(#filter4499)"
     inkscape:connector-curvature="0"
     id="path3649"
     d="m -599.61682,-11577.058 h 5.35424 v 14.751 c 0,6.632 -5.078,8.049 -9.04985,8.049 -3.83493,0 -8.73999,-1.278 -8.73999,-8.084 v -14.716 h 5.56203 v 13.681 c 0,3.73 1.31274,4.594 3.42057,4.594 2.52219,0 3.4542,-1.14 3.4542,-4.561 v -13.714 z" /><path
     style="fill:#000000;filter:url(#filter4503)"
     inkscape:connector-curvature="0"
     id="path3651"
     d="m -589.28666,-11559.198 h 5.80344 v -13.265 h -5.80344 v -4.595 h 17.20373 v 4.595 h -5.83827 v 13.265 h 5.83827 v 4.594 h -17.20373 v -4.594 z" /><path
     style="fill:#000000;filter:url(#filter4507)"
     inkscape:connector-curvature="0"
     id="path3653"
     d="m -562.23437,-11554.604 h -5.25096 v -22.454 h 6.04605 l 7.28792,13.473 v -13.473 h 5.1813 v 22.454 h -5.63049 l -7.66985,-14.37 0.036,14.37 z" /><path
     style="fill:#000000;filter:url(#filter4511)"
     inkscape:connector-curvature="0"
     id="path3655"
     d="m -526.23552,-11565.83 c 0,6.494 -2.38287,11.573 -9.60355,11.573 -6.46041,0 -9.43178,-3.904 -9.43178,-11.331 0,-6.772 2.59064,-11.781 9.39695,-11.781 6.38955,0 9.63838,2.971 9.63838,11.539 z m -5.90674,0 c 0,-5.492 -0.44919,-7.013 -3.73044,-7.013 -2.97138,0 -3.48903,1.762 -3.48903,7.255 0,4.525 0.31107,6.805 3.52386,6.805 3.24642,0 3.69561,-1.866 3.69561,-7.047 z" /><g
     transform="matrix(1.2974818,0,0,1.2974825,-890.24129,-11690.44)"
     id="g3657"
     style="fill:#000000;filter:url(#filter4515)"><path
       id="path3659"
       d="m 161.508,117.017 h 5.64 c 6.434,0 8.579,3.045 8.579,8.447 0,4.077 -1.244,8.764 -8.552,8.764 h -5.667 v -17.211 z m 4.263,3.469 v 10.221 h 1.615 c 3.521,0 3.787,-2.145 3.787,-5.057 0,-3.363 -0.345,-5.163 -4.157,-5.163 h -1.245 z"
       inkscape:connector-curvature="0"
       style="fill:#000000" /><path
       id="path3661"
       d="m 177.795,134.228 5.402,-17.211 h 4.792 l 5.481,17.211 h -4.528 l -0.953,-3.522 h -4.952 l -0.874,3.522 h -4.368 z m 7.625,-13.133 -1.562,6.302 h 3.257 l -1.695,-6.302 z"
       inkscape:connector-curvature="0"
       style="fill:#000000" /><path
       id="path3663"
       d="m 203.137,124.06 3.045,-7.043 h 4.263 l -5.375,10.406 v 6.805 h -4.263 v -6.673 l -5.561,-10.538 h 4.608 l 3.283,7.043 z"
       inkscape:connector-curvature="0"
       style="fill:#000000" /></g><g
     transform="matrix(1.2974818,0,0,1.2974825,-890.24129,-11690.44)"
     id="g3665"
     style="fill:#000000;filter:url(#filter4519)"><path
       id="path3667"
       d="m 223.438,121.598 c 0,-1.959 -1.351,-3.018 -3.072,-3.018 -1.324,0 -2.727,0.794 -3.654,1.827 L 215.6,119.03 c 0.847,-0.927 2.754,-2.251 5.19,-2.251 2.674,0 4.819,1.589 4.819,4.581 0,3.521 -4.66,8.447 -8.128,11.041 h 8.949 v 1.827 h -11.65 v -1.483 c 3.204,-2.303 8.658,-7.758 8.658,-11.147 z"
       inkscape:connector-curvature="0"
       style="fill:#000000" /><path
       id="path3669"
       d="m 244.385,125.172 c 0,4.21 -1.138,9.32 -6.699,9.32 -4.369,0 -6.46,-3.045 -6.46,-8.526 0,-4.899 1.456,-9.188 6.646,-9.188 4.686,10e-4 6.513,3.258 6.513,8.394 z m -9.744,6.144 5.11,-12.313 c -0.556,-0.265 -1.218,-0.423 -2.039,-0.423 -3.521,0 -4.342,3.442 -4.342,6.805 0,2.276 0.185,4.527 1.271,5.931 z m 7.599,-5.852 c 0,-2.039 -0.186,-4.21 -1.324,-5.561 l -5.137,12.366 c 0.556,0.291 1.244,0.45 2.091,0.45 3.682,0 4.37,-3.813 4.37,-7.255 z"
       inkscape:connector-curvature="0"
       style="fill:#000000" /><path
       id="path3671"
       d="m 249.286,132.401 h 4.845 v -13.636 l -3.865,0.185 v -1.853 l 5.958,-0.292 v 15.596 h 4.554 v 1.827 h -11.491 v -1.827 z"
       inkscape:connector-curvature="0"
       style="fill:#000000" /><path
       id="path3673"
       d="m 272.377,134.493 c -4.449,0 -6.038,-3.336 -6.038,-8.208 0,-5.958 3.496,-9.48 9.162,-9.48 0.583,0 1.192,0.026 1.827,0.106 v 1.906 c -0.635,-0.106 -1.244,-0.159 -1.853,-0.159 -3.68,0 -6.699,2.039 -6.937,6.54 1.244,-0.821 2.674,-1.376 4.475,-1.376 2.86,0 5.11,1.589 5.11,4.819 0,3.496 -2.092,5.852 -5.746,5.852 z m -0.053,-8.897 c -1.562,0 -2.965,0.689 -3.839,1.403 0.053,3.072 0.821,5.719 4.104,5.719 2.41,0 3.389,-1.827 3.389,-3.733 0,-2.356 -1.139,-3.389 -3.654,-3.389 z"
       inkscape:connector-curvature="0"
       style="fill:#000000" /></g><text
     xml:space="preserve"
     style="font-style:normal;font-weight:normal;font-size:127.76760101px;line-height:125%;font-family:sans-serif;letter-spacing:0px;word-spacing:0px;fill:#000000;fill-opacity:1;stroke:none;stroke-width:1px;stroke-linecap:butt;stroke-linejoin:miter;stroke-opacity:1"
     x="427.16132"
     y="253.19432"
     id="text3739"
     sodipodi:linespacing="125%"><tspan
       sodipodi:role="line"
       id="tspan3741"
       x="427.16132"
       y="253.19432"
       style="font-size:45px">Certificate</tspan></text>
<text
     sodipodi:linespacing="125%"
     id="text3743"
     y="318.7804"
     x="526.97577"
     style="font-style:normal;font-weight:normal;font-size:45px;line-height:125%;font-family:sans-serif;text-align:center;letter-spacing:0px;word-spacing:0px;text-anchor:middle;fill:#000000;fill-opacity:1;stroke:none;stroke-width:1px;stroke-linecap:butt;stroke-linejoin:miter;stroke-opacity:1"
     xml:space="preserve"><tspan
       y="318.7804"
       x="526.97577"
       id="tspan3745"
       sodipodi:role="line"
       style="font-size:30px">This acknowledges that NAME</tspan><tspan
       y="356.2804"
       x="526.97577"
       sodipodi:role="line"
       id="tspan3751"
       style="font-size:30px">has participated at the EVENT at DATE</tspan></text>
<text
     xml:space="preserve"
     style="font-style:normal;font-weight:normal;font-size:45px;line-height:125%;font-family:sans-serif;text-align:start;letter-spacing:0px;word-spacing:0px;text-anchor:start;fill:#000000;fill-opacity:1;stroke:none;stroke-width:1px;stroke-linecap:butt;stroke-linejoin:miter;stroke-opacity:1"
     x="558.87708"
     y="478.73978"
     id="text3764"
     sodipodi:linespacing="125%"><tspan
       style="font-size:26.25px;text-align:start;text-anchor:start"
       id="tspan3772"
       sodipodi:role="line"
       x="558.87708"
       y="478.73978">Place, full date.</tspan></text>
<text
     sodipodi:linespacing="125%"
     id="text3748"
     y="614.10089"
     x="526.18542"
     style="font-style:normal;font-weight:normal;font-size:30.37711906px;line-height:125%;font-family:sans-serif;text-align:center;letter-spacing:0px;word-spacing:0px;text-anchor:middle;fill:#000000;fill-opacity:1;stroke:none;stroke-width:1px;stroke-linecap:butt;stroke-linejoin:miter;stroke-opacity:1"
     xml:space="preserve"><tspan
       y="614.10089"
       x="526.18542"
       sodipodi:role="line"
       id="tspan3750"
       style="font-size:17.71998596px;text-align:center;text-anchor:middle">Signatory Name</tspan><tspan
       y="631.04785"
       x="526.18542"
       sodipodi:role="line"
       style="font-size:12.5px;text-align:center;text-anchor:middle"
       id="tspan3763">Name of the Signatory Institution</tspan></text>
<path
     style="fill:none;fill-rule:evenodd;stroke:#000000;stroke-width:1px;stroke-linecap:butt;stroke-linejoin:miter;stroke-opacity:1"
     d="m 295.3859,588.96984 461.59039,0"
     id="path3765"
     inkscape:connector-curvature="0" /></svg>